<?xml version="1.0" encoding="UTF-8" standalone="no"?><!-- Generator: Gravit.io --><svg xmlns="http://www.w3.org/2000/svg" xmlns:xlink="http://www.w3.org/1999/xlink" style="isolation:isolate" viewBox="68.352 190.383 414.798 119.055" width="414.798pt" height="119.055pt"><g><defs><filter id="MD6baruCGeWMGrdkEMLOXEfpOpU2Li8H" x="-200%" y="-200%" width="400%" height="400%" filterUnits="objectBoundingBox" color-interpolation-filters="sRGB"><feOffset xmlns="http://www.w3.org/2000/svg" in="SourceGraphic" dx="0" dy="0"/><feGaussianBlur xmlns="http://www.w3.org/2000/svg" stdDeviation="0.42936090628390283" result="pf_100_offsetBlur"/><feComposite xmlns="http://www.w3.org/2000/svg" in="SourceGraphic" in2="pf_100_offsetBlur" result="pf_100_inverse" operator="out"/><feFlood xmlns="http://www.w3.org/2000/svg" flood-color="#000000" flood-opacity="0.5" result="pf_100_color"/><feComposite xmlns="http://www.w3.org/2000/svg" in="pf_100_color" in2="pf_100_inverse" operator="in" result="pf_100_shadow"/><feComposite xmlns="http://www.w3.org/2000/svg" in="pf_100_shadow" in2="SourceGraphic" operator="over"/></filter></defs><g filter="url(#MD6baruCGeWMGrdkEMLOXEfpOpU2Li8H)"><path d=" M 136.367 191.981 L 137.675 218.141 L 104.394 263.049 L 136.513 263.049 L 136.077 293.86 L 71.258 296.476 L 68.352 267.99 L 106.284 218.577 L 71.549 221.193 L 71.258 191.981 L 136.367 191.981 Z  M 144.215 197.649 L 182.874 195.615 L 174.881 294.586 L 144.215 296.185 L 144.215 197.649 Z  M 273.997 234.273 L 274.869 283.105 L 274.869 283.105 Q 271.454 287.392 266.44 290.59 L 266.44 290.59 L 266.44 290.59 Q 261.426 293.787 255.685 295.894 L 255.685 295.894 L 255.685 295.894 Q 249.945 298.002 243.913 299.055 L 243.913 299.055 L 243.913 299.055 Q 237.882 300.109 232.432 300.109 L 232.432 300.109 L 232.432 300.109 Q 221.896 300.109 213.03 296.33 L 213.03 296.33 L 213.03 296.33 Q 204.165 292.552 197.734 285.903 L 197.734 285.903 L 197.734 285.903 Q 191.303 279.254 187.67 270.243 L 187.67 270.243 L 187.67 270.243 Q 184.036 261.232 184.036 250.841 L 184.036 250.841 L 184.036 250.841 Q 184.036 242.92 185.853 235.327 L 185.853 235.327 L 185.853 235.327 Q 187.67 227.733 191.049 221.012 L 191.049 221.012 L 191.049 221.012 Q 194.428 214.29 199.296 208.658 L 199.296 208.658 L 199.296 208.658 Q 204.165 203.027 210.342 198.957 L 210.342 198.957 L 210.342 198.957 Q 216.518 194.888 223.858 192.635 L 223.858 192.635 L 223.858 192.635 Q 231.197 190.383 239.553 190.383 L 239.553 190.383 L 239.553 190.383 Q 242.678 190.383 246.239 190.637 L 246.239 190.637 L 246.239 190.637 Q 249.799 190.891 253.324 191.509 L 253.324 191.509 L 253.324 191.509 Q 256.848 192.127 260.191 193.217 L 260.191 193.217 L 260.191 193.217 Q 263.533 194.307 266.295 195.905 L 266.295 195.905 L 264.26 223.664 L 264.26 223.664 Q 260.191 222.138 255.867 221.593 L 255.867 221.593 L 255.867 221.593 Q 251.543 221.048 247.401 221.048 L 247.401 221.048 L 247.401 221.048 Q 241.588 221.048 236.538 222.828 L 236.538 222.828 L 236.538 222.828 Q 231.488 224.609 227.745 227.951 L 227.745 227.951 L 227.745 227.951 Q 224.003 231.294 221.823 236.09 L 221.823 236.09 L 221.823 236.09 Q 219.643 240.886 219.643 246.917 L 219.643 246.917 L 219.643 246.917 Q 219.643 250.696 220.66 254.22 L 220.66 254.22 L 220.66 254.22 Q 221.678 257.744 223.749 260.469 L 223.749 260.469 L 223.749 260.469 Q 225.82 263.194 228.908 264.866 L 228.908 264.866 L 228.908 264.866 Q 231.996 266.537 236.066 266.537 L 236.066 266.537 L 236.066 266.537 Q 238.827 266.537 241.77 265.81 L 241.77 265.81 L 241.77 265.81 Q 244.713 265.084 246.82 263.34 L 246.82 263.34 L 247.111 257.672 L 229.671 257.381 L 230.543 235.581 L 230.543 235.581 Q 241.37 235.218 252.197 234.964 L 252.197 234.964 L 252.197 234.964 Q 263.025 234.709 273.997 234.273 L 273.997 234.273 Z  M 370.207 246.626 L 370.207 246.626 L 370.207 246.626 Q 370.207 253.239 368.681 259.379 L 368.681 259.379 L 368.681 259.379 Q 367.155 265.52 364.285 270.897 L 364.285 270.897 L 364.285 270.897 Q 361.415 276.274 357.309 280.743 L 357.309 280.743 L 357.309 280.743 Q 353.204 285.212 348.081 288.41 L 348.081 288.41 L 348.081 288.41 Q 342.958 291.607 336.926 293.387 L 336.926 293.387 L 336.926 293.387 Q 330.895 295.168 324.137 295.168 L 324.137 295.168 L 324.137 295.168 Q 317.597 295.168 311.675 293.496 L 311.675 293.496 L 311.675 293.496 Q 305.752 291.825 300.593 288.809 L 300.593 288.809 L 300.593 288.809 Q 295.434 285.794 291.256 281.543 L 291.256 281.543 L 291.256 281.543 Q 287.077 277.292 284.134 272.096 L 284.134 272.096 L 284.134 272.096 Q 281.191 266.9 279.556 260.942 L 279.556 260.942 L 279.556 260.942 Q 277.921 254.983 277.921 248.516 L 277.921 248.516 L 277.921 248.516 Q 277.921 242.194 279.447 236.126 L 279.447 236.126 L 279.447 236.126 Q 280.973 230.059 283.844 224.681 L 283.844 224.681 L 283.844 224.681 Q 286.714 219.304 290.783 214.799 L 290.783 214.799 L 290.783 214.799 Q 294.853 210.293 299.903 207.023 L 299.903 207.023 L 299.903 207.023 Q 304.953 203.753 310.839 201.937 L 310.839 201.937 L 310.839 201.937 Q 316.725 200.12 323.265 200.12 L 323.265 200.12 L 323.265 200.12 Q 333.802 200.12 342.485 203.39 L 342.485 203.39 L 342.485 203.39 Q 351.169 206.66 357.309 212.728 L 357.309 212.728 L 357.309 212.728 Q 363.449 218.795 366.828 227.406 L 366.828 227.406 L 366.828 227.406 Q 370.207 236.017 370.207 246.626 Z  M 337.944 248.516 L 337.944 248.516 L 337.944 248.516 Q 337.944 245.391 337.035 242.448 L 337.035 242.448 L 337.035 242.448 Q 336.127 239.505 334.383 237.216 L 334.383 237.216 L 334.383 237.216 Q 332.639 234.927 330.059 233.51 L 330.059 233.51 L 330.059 233.51 Q 327.48 232.093 324.137 232.093 L 324.137 232.093 L 324.137 232.093 Q 320.722 232.093 318.033 233.329 L 318.033 233.329 L 318.033 233.329 Q 315.344 234.564 313.419 236.708 L 313.419 236.708 L 313.419 236.708 Q 311.493 238.851 310.476 241.721 L 310.476 241.721 L 310.476 241.721 Q 309.458 244.592 309.458 247.789 L 309.458 247.789 L 309.458 247.789 Q 309.458 250.841 310.33 253.893 L 310.33 253.893 L 310.33 253.893 Q 311.202 256.945 312.946 259.416 L 312.946 259.416 L 312.946 259.416 Q 314.69 261.886 317.27 263.412 L 317.27 263.412 L 317.27 263.412 Q 319.85 264.938 323.265 264.938 L 323.265 264.938 L 323.265 264.938 Q 326.68 264.938 329.405 263.594 L 329.405 263.594 L 329.405 263.594 Q 332.13 262.25 334.02 259.961 L 334.02 259.961 L 334.02 259.961 Q 335.909 257.672 336.926 254.692 L 336.926 254.692 L 336.926 254.692 Q 337.944 251.713 337.944 248.516 Z  M 465.11 246.626 L 465.11 246.626 L 465.11 246.626 Q 465.11 253.239 463.584 259.379 L 463.584 259.379 L 463.584 259.379 Q 462.058 265.52 459.187 270.897 L 459.187 270.897 L 459.187 270.897 Q 456.317 276.274 452.211 280.743 L 452.211 280.743 L 452.211 280.743 Q 448.106 285.212 442.983 288.41 L 442.983 288.41 L 442.983 288.41 Q 437.86 291.607 431.828 293.387 L 431.828 293.387 L 431.828 293.387 Q 425.797 295.168 419.039 295.168 L 419.039 295.168 L 419.039 295.168 Q 412.499 295.168 406.577 293.496 L 406.577 293.496 L 406.577 293.496 Q 400.655 291.825 395.495 288.809 L 395.495 288.809 L 395.495 288.809 Q 390.336 285.794 386.158 281.543 L 386.158 281.543 L 386.158 281.543 Q 381.979 277.292 379.036 272.096 L 379.036 272.096 L 379.036 272.096 Q 376.093 266.9 374.458 260.942 L 374.458 260.942 L 374.458 260.942 Q 372.823 254.983 372.823 248.516 L 372.823 248.516 L 372.823 248.516 Q 372.823 242.194 374.349 236.126 L 374.349 236.126 L 374.349 236.126 Q 375.875 230.059 378.746 224.681 L 378.746 224.681 L 378.746 224.681 Q 381.616 219.304 385.685 214.799 L 385.685 214.799 L 385.685 214.799 Q 389.755 210.293 394.805 207.023 L 394.805 207.023 L 394.805 207.023 Q 399.855 203.753 405.741 201.937 L 405.741 201.937 L 405.741 201.937 Q 411.627 200.12 418.167 200.12 L 418.167 200.12 L 418.167 200.12 Q 428.704 200.12 437.387 203.39 L 437.387 203.39 L 437.387 203.39 Q 446.071 206.66 452.211 212.728 L 452.211 212.728 L 452.211 212.728 Q 458.352 218.795 461.731 227.406 L 461.731 227.406 L 461.731 227.406 Q 465.11 236.017 465.11 246.626 Z  M 432.846 248.516 L 432.846 248.516 L 432.846 248.516 Q 432.846 245.391 431.937 242.448 L 431.937 242.448 L 431.937 242.448 Q 431.029 239.505 429.285 237.216 L 429.285 237.216 L 429.285 237.216 Q 427.541 234.927 424.962 233.51 L 424.962 233.51 L 424.962 233.51 Q 422.382 232.093 419.039 232.093 L 419.039 232.093 L 419.039 232.093 Q 415.624 232.093 412.935 233.329 L 412.935 233.329 L 412.935 233.329 Q 410.247 234.564 408.321 236.708 L 408.321 236.708 L 408.321 236.708 Q 406.395 238.851 405.378 241.721 L 405.378 241.721 L 405.378 241.721 Q 404.361 244.592 404.361 247.789 L 404.361 247.789 L 404.361 247.789 Q 404.361 250.841 405.233 253.893 L 405.233 253.893 L 405.233 253.893 Q 406.105 256.945 407.849 259.416 L 407.849 259.416 L 407.849 259.416 Q 409.593 261.886 412.172 263.412 L 412.172 263.412 L 412.172 263.412 Q 414.752 264.938 418.167 264.938 L 418.167 264.938 L 418.167 264.938 Q 421.583 264.938 424.308 263.594 L 424.308 263.594 L 424.308 263.594 Q 427.032 262.25 428.922 259.961 L 428.922 259.961 L 428.922 259.961 Q 430.811 257.672 431.828 254.692 L 431.828 254.692 L 431.828 254.692 Q 432.846 251.713 432.846 248.516 Z " fill="rgb(115,185,67)"/></g><ellipse vector-effect="non-scaling-stroke" cx="418.89386649526205" cy="248.82461727644392" rx="24.08887018153166" ry="21.41838457317185" fill="rgb(115,185,67)"/><g><path d=" M 466.245 308.605 L 449.666 292.029 L 441.629 300.065 C 440.936 300.759 439.928 301.045 438.968 300.823 C 438.008 300.595 437.236 299.89 436.926 298.955 L 420.85 250.732 C 420.509 249.711 420.775 248.584 421.536 247.824 C 422.293 247.066 423.423 246.788 424.444 247.138 L 472.668 263.213 C 473.603 263.524 474.308 264.296 474.535 265.256 C 474.76 266.213 474.474 267.22 473.778 267.917 L 465.741 275.953 L 482.318 292.532 C 483.428 293.642 483.428 295.441 482.318 296.551 L 470.263 308.605 C 469.153 309.715 467.355 309.715 466.245 308.605 Z " fill="rgb(0,0,0)"/></g><g><path d=" M 423.098 235.178 C 421.528 235.178 420.257 233.907 420.257 232.337 L 420.257 215.287 C 420.257 213.716 421.528 212.446 423.098 212.446 C 424.669 212.446 425.94 213.716 425.94 215.287 L 425.94 232.337 C 425.94 233.907 424.669 235.178 423.098 235.178 Z " fill="rgb(0,0,0)"/></g><g><path d=" M 409.035 239.341 L 396.977 227.283 C 395.867 226.173 395.867 224.375 396.977 223.265 C 398.087 222.155 399.886 222.155 400.995 223.265 L 413.053 235.322 C 414.163 236.432 414.163 238.231 413.053 239.34 C 411.943 240.451 410.145 240.451 409.035 239.341 Z " fill="rgb(0,0,0)"/></g><g><path d=" M 396.977 275.507 C 395.867 274.397 395.867 272.599 396.977 271.489 L 409.034 259.432 C 410.144 258.322 411.943 258.322 413.053 259.432 C 414.163 260.541 414.163 262.34 413.053 263.45 L 400.995 275.507 C 399.886 276.617 398.087 276.617 396.977 275.507 Z " fill="rgb(0,0,0)"/></g><g><path d=" M 433.143 239.341 C 432.034 238.231 432.034 236.432 433.143 235.322 L 445.201 223.265 C 446.311 222.155 448.109 222.155 449.219 223.265 C 450.329 224.375 450.329 226.174 449.219 227.283 L 437.162 239.341 C 436.052 240.451 434.254 240.451 433.143 239.341 Z " fill="rgb(0,0,0)"/></g><g><path d=" M 406.049 252.228 L 388.999 252.228 C 387.429 252.228 386.158 250.957 386.158 249.386 C 386.158 247.815 387.429 246.544 388.999 246.544 L 406.049 246.544 C 407.619 246.544 408.89 247.815 408.89 249.386 C 408.89 250.957 407.619 252.228 406.049 252.228 Z " fill="rgb(0,0,0)"/></g></g></svg>